<svg width="24" height="24" viewBox="0 0 24 24" fill="none" xmlns="http://www.w3.org/2000/svg">
<path d="M22.0571 6.9449C21.9376 6.50093 21.7036 6.09614 21.3785 5.77103C21.0534 5.44592 20.6486 5.2119 20.2046 5.0924C18.5696 4.6499 11.9996 4.6499 11.9996 4.6499C11.9996 4.6499 5.42959 4.6499 3.79459 5.0924C3.35062 5.2119 2.94582 5.44592 2.62071 5.77103C2.29561 6.09614 2.06159 6.50093 1.94209 6.9449C1.6368 8.61235 1.48865 10.3048 1.49959 11.9999C1.48865 13.695 1.6368 15.3875 1.94209 17.0549C2.06159 17.4989 2.29561 17.9037 2.62071 18.2288C2.94582 18.5539 3.35062 18.7879 3.79459 18.9074C5.42959 19.3499 11.9996 19.3499 11.9996 19.3499C11.9996 19.3499 18.5696 19.3499 20.2046 18.9074C20.6486 18.7879 21.0534 18.5539 21.3785 18.2288C21.7036 17.9037 21.9376 17.4989 22.0571 17.0549C22.3624 15.3875 22.5105 13.695 22.4996 11.9999C22.5105 10.3048 22.3624 8.61235 22.0571 6.9449ZM9.89959 15.1499V8.8499L15.3521 11.9999L9.89959 15.1499Z" fill="white"/>
</svg>
