<svg width="24" height="24" viewBox="0 0 24 24" fill="none" xmlns="http://www.w3.org/2000/svg">
<g clip-path="url(#clip0_4443_419)">
<path d="M0 15.9912C0.0801335 15.4543 0.160267 14.9263 0.360601 14.4158C1.43239 11.6348 3.61603 9.92739 6.87145 9.28493C7.77295 9.10891 8.68447 9.10011 9.59599 9.18812C9.78631 9.20572 9.87646 9.26733 9.87646 9.44334C9.87646 10.6315 9.87646 11.8196 9.87646 12.9989C9.87646 13.2365 9.76628 13.2277 9.56594 13.1749C7.41235 12.6909 5.22871 13.8262 4.68781 15.7184C4.10684 17.725 5.67947 19.7668 8.00334 20.0484C10.4374 20.3388 12.5609 18.7195 12.571 16.5457C12.571 11.1859 12.571 5.81738 12.571 0.457646C12.571 0.369637 12.571 0.281628 12.571 0.20242C12.571 0.070407 12.6311 0 12.7913 0C14.1536 0 15.5058 0 16.8681 0C17.1285 0 17.1085 0.158416 17.1185 0.308031C17.1486 1.07371 17.3389 1.81298 17.7295 2.49945C18.8514 4.50605 20.6745 5.67657 23.2087 5.9582C23.399 5.9758 23.5993 5.9934 23.7896 6.0022C23.9499 6.0022 24.01 6.07261 24.01 6.20462C24.01 7.39274 24.01 8.58086 24.01 9.76017C24.01 9.96259 23.8698 9.9626 23.7095 9.95379C22.6678 9.91859 21.6461 9.78658 20.6444 9.51375C19.4725 9.19692 18.3907 8.73047 17.389 8.10561C17.3189 8.06161 17.2487 7.9648 17.1686 8.0088C17.0885 8.0528 17.1285 8.14961 17.1285 8.22882C17.1285 10.9747 17.1686 13.7206 17.1285 16.4752C17.0885 19.6084 15.4057 21.879 12.2504 23.2959C11.3689 23.692 10.4073 23.9032 9.41569 23.9824C9.37563 23.9824 9.33556 24 9.28548 24.0088H7.84307C7.54257 23.9648 7.23205 23.9384 6.93155 23.8768C3.83639 23.2871 1.69282 21.703 0.520868 19.1155C0.240401 18.4906 0.1202 17.8306 0.0200334 17.1617V15.9912H0Z" fill="white"/>
</g>
<defs>
<clipPath id="clip0_4443_419">
<rect width="24" height="24" fill="white"/>
</clipPath>
</defs>
</svg>
