<svg width="24" height="24" viewBox="0 0 24 24" fill="none" xmlns="http://www.w3.org/2000/svg">
<path fill-rule="evenodd" clip-rule="evenodd" d="M4.99453 24H19.0935C19.4636 24 19.8328 23.9587 20.194 23.8766L20.1998 23.875C22.403 23.373 23.9913 21.4074 23.9944 19.1478C24.0007 14.3746 24.0033 9.60132 23.9934 4.82808C23.9882 2.18575 21.8148 0.013009 19.1719 0.00725688C14.3897 -0.00267865 9.60791 -0.00215573 4.82565 0.00725688C2.4259 0.0119632 0.374341 1.83383 0.0538507 4.21103V4.2126C0.026664 4.40295 0 4.59329 0 4.78573V19.0233C0 19.4605 0.0538507 19.8961 0.160507 20.3202C0.639412 22.2299 2.26173 23.6784 4.21552 23.9456H4.21709C4.42988 23.9754 4.77965 24 4.99453 24ZM4.41262 20.4028L10.194 13.1943H10.1935L2.49125 3.59398L8.01017 3.59085C8.01017 3.59085 11.283 7.65082 12.8337 9.58302C12.8595 9.61573 12.8873 9.64667 12.9205 9.68356C12.9351 9.69976 12.9507 9.7171 12.9676 9.73624C13.1694 9.48499 13.3701 9.2356 13.5699 8.98725C13.8783 8.60395 14.1847 8.2231 14.4906 7.84169C15.5728 6.49202 17.8926 3.59085 17.8926 3.59085C17.8926 3.59085 19.0637 3.59346 19.5923 3.59346L13.8109 10.8009C15.024 12.3135 16.2386 13.8298 17.4566 15.3503C18.8014 17.0291 20.1503 18.7131 21.5058 20.4028L15.9848 20.4086C15.9848 20.4086 12.692 16.3068 11.1309 14.361C11.1168 14.343 11.1008 14.3264 11.0791 14.3039C11.0685 14.2931 11.0567 14.2808 11.0431 14.2663C11.0199 14.2933 10.997 14.3192 10.9746 14.3445C10.9349 14.3895 10.8967 14.4328 10.8606 14.4776C10.6138 14.7851 10.367 15.0925 10.1201 15.4C8.84321 16.9906 7.56624 18.5812 6.29479 20.1759C6.23675 20.2491 6.10134 20.4028 6.10134 20.4028H4.41262ZM5.7475 4.91381C5.58589 4.91408 5.42189 4.91436 5.25481 4.91436C5.28926 4.95916 5.31797 4.99682 5.34317 5.02986C5.38678 5.08706 5.41987 5.13045 5.454 5.17321C8.99037 9.5804 16.632 19.084 16.632 19.084H18.7494C18.7183 19.043 18.6919 19.008 18.6685 18.9769C18.6259 18.9202 18.5932 18.8766 18.5591 18.834L14.2991 13.5253C13.9551 13.0965 13.6111 12.6677 13.2671 12.2389C11.3536 9.85379 9.44012 7.46863 7.52438 5.08535C7.46844 5.01581 7.38426 4.92325 7.31211 4.92168C6.79962 4.91202 6.28681 4.91289 5.7475 4.91381Z" fill="white"/>
</svg>
